<svg width="23" height="16" viewBox="0 0 23 16" fill="none" xmlns="http://www.w3.org/2000/svg">
<path d="M3.54 3.24L3.5 6.38H4.3C4.84667 6.36667 5.33333 6.36 5.76 6.36C6.18667 6.36 6.66 6.36667 7.18 6.38H7.28C7.44 6.38 7.59333 6.38667 7.74 6.4C7.9 6.4 8.05333 6.4 8.2 6.4C8.36 6.41333 8.51333 6.44 8.66 6.48C8.80667 6.50667 8.95333 6.54 9.1 6.58C9.32667 6.66 9.51333 6.78 9.66 6.94C9.79333 7.11333 9.86 7.30667 9.86 7.52C9.86 7.58667 9.86 7.66667 9.86 7.76C9.86 7.84 9.84667 7.91333 9.82 7.98C9.79333 8.12667 9.70667 8.26 9.56 8.38C9.49333 8.47333 9.36667 8.54 9.18 8.58C9.00667 8.63333 8.83333 8.66667 8.66 8.68C8.47333 8.72 8.28667 8.74 8.1 8.74H7.16L3.46 8.76L3.42 12.68L7.4 12.72H8.34C8.44667 12.72 8.54667 12.72 8.64 12.72C8.73333 12.72 8.82 12.7267 8.9 12.74C9.00667 12.7667 9.1 12.7867 9.18 12.8C9.27333 12.8 9.36 12.8133 9.44 12.84C9.6 12.8933 9.73333 12.9667 9.84 13.06C9.97333 13.1933 10.06 13.3333 10.1 13.48C10.1133 13.5467 10.12 13.62 10.12 13.7C10.1333 13.7667 10.1333 13.84 10.12 13.92C10.12 14.1333 10.0533 14.3267 9.92 14.5C9.76 14.6867 9.57333 14.8067 9.36 14.86C9.08 14.98 8.77333 15.04 8.44 15.04C8.29333 15.0533 8.14 15.06 7.98 15.06C7.82 15.06 7.66667 15.0667 7.52 15.08H7.4C6.36 15.1067 5.28 15.1067 4.16 15.08C3.89333 15.08 3.68 15.0733 3.52 15.06C3.36 15.06 3.21333 15.06 3.08 15.06C2.96 15.06 2.83333 15.06 2.7 15.06C2.56667 15.06 2.39333 15.06 2.18 15.06C1.87333 15.0867 1.62 15.0333 1.42 14.9C1.27333 14.8067 1.16 14.68 1.08 14.52C1.04 14.48 1.02 14.44 1.02 14.4C1.00667 14.3733 0.993333 14.3533 0.98 14.34C0.966667 14.3267 0.953333 14.3067 0.94 14.28C0.913333 14.2133 0.893333 14.1467 0.88 14.08C0.866667 14 0.86 13.9267 0.86 13.86C0.846667 13.7933 0.833333 13.7267 0.82 13.66C0.82 13.5933 0.813333 13.5267 0.8 13.46V13.14C0.8 13.0867 0.8 13.0333 0.8 12.98C0.813333 12.9267 0.82 12.8733 0.82 12.82V11.26L0.86 8.38V5.72C0.86 5.24 0.86 4.81333 0.86 4.44C0.873333 4.06667 0.886667 3.66 0.9 3.22V3.12C0.913333 2.97333 0.92 2.84 0.92 2.72C0.933333 2.58667 0.94 2.45333 0.94 2.32C0.953333 2.05333 1.02667 1.79333 1.16 1.54C1.21333 1.43333 1.26667 1.34 1.32 1.26C1.38667 1.18 1.47333 1.11333 1.58 1.06C1.78 0.939999 1.98667 0.879999 2.2 0.879999C2.30667 0.879999 2.38667 0.886666 2.44 0.899999V0.879999C2.68 0.879999 2.87333 0.879999 3.02 0.879999C3.16667 0.879999 3.30667 0.879999 3.44 0.879999C3.58667 0.879999 3.74 0.879999 3.9 0.879999C4.06 0.866666 4.28 0.86 4.56 0.86C5.09333 0.846666 5.6 0.84 6.08 0.84C6.56 0.84 7.05333 0.846666 7.56 0.86H7.64C7.78667 0.873333 7.94 0.879999 8.1 0.879999C8.26 0.879999 8.41333 0.886666 8.56 0.899999C8.70667 0.899999 8.85333 0.919999 9 0.96C9.14667 0.986666 9.29333 1.02667 9.44 1.08C9.66667 1.14667 9.85333 1.26 10 1.42C10.12 1.60667 10.18 1.79333 10.18 1.98C10.18 2.06 10.18 2.14 10.18 2.22C10.18 2.28667 10.1667 2.35333 10.14 2.42C10.1267 2.55333 10.0467 2.69333 9.9 2.84C9.84667 2.86667 9.78667 2.9 9.72 2.94C9.66667 2.98 9.6 3.01333 9.52 3.04C9.44 3.06667 9.35333 3.08667 9.26 3.1C9.18 3.1 9.1 3.10667 9.02 3.12C8.91333 3.14667 8.81333 3.16 8.72 3.16C8.64 3.16 8.54667 3.16 8.44 3.16H7.54L3.54 3.18V3.24ZM22.3566 10.24C22.3566 10.64 22.3366 11.0467 22.2966 11.46C22.2566 11.86 22.1766 12.2533 22.0566 12.64C21.9366 13.0133 21.7566 13.3733 21.5166 13.72C21.2766 14.0533 20.9499 14.3467 20.5366 14.6C20.3366 14.7333 20.0966 14.8467 19.8166 14.94C19.5499 15.02 19.2632 15.0867 18.9566 15.14C18.6632 15.2067 18.3699 15.2467 18.0766 15.26C17.7832 15.2867 17.5099 15.2933 17.2566 15.28C16.0566 15.24 15.0832 14.9533 14.3366 14.42C13.6032 13.8733 13.0366 13.2 12.6366 12.4C12.2499 11.6 11.9966 10.7333 11.8766 9.8C11.7699 8.85333 11.7499 7.95333 11.8166 7.1C11.8566 6.59333 11.9432 6.04667 12.0766 5.46C12.2232 4.87333 12.4299 4.30667 12.6966 3.76C12.9766 3.21333 13.3166 2.72 13.7166 2.28C14.1299 1.84 14.6166 1.50667 15.1766 1.28C15.6966 1.06667 16.2632 0.933333 16.8766 0.879999C17.5032 0.813333 18.1166 0.833333 18.7166 0.94C19.3299 1.04667 19.8966 1.24 20.4166 1.52C20.9499 1.8 21.3699 2.17333 21.6766 2.64C21.8899 2.98667 22.0566 3.40667 22.1766 3.9C22.2966 4.39333 22.3166 4.86667 22.2366 5.32C22.1699 5.72 22.0299 6 21.8166 6.16C21.6032 6.30667 21.3699 6.36667 21.1166 6.34C20.8632 6.3 20.6166 6.19333 20.3766 6.02C20.1499 5.83333 19.9966 5.6 19.9166 5.32C19.8232 5.01333 19.7099 4.73333 19.5766 4.48C19.4432 4.21333 19.2366 3.99333 18.9566 3.82C18.6366 3.62 18.2966 3.50667 17.9366 3.48C17.5899 3.45333 17.2499 3.49333 16.9166 3.6C16.5966 3.70667 16.2899 3.87333 15.9966 4.1C15.7166 4.32667 15.4832 4.58667 15.2966 4.88C15.0699 5.21333 14.8966 5.58 14.7766 5.98C14.6566 6.36667 14.5699 6.77333 14.5166 7.2C14.4632 7.61333 14.4432 8.03333 14.4566 8.46C14.4832 8.87333 14.5366 9.27333 14.6166 9.66C14.7632 10.3133 14.9899 10.9267 15.2966 11.5C15.4166 11.7133 15.5766 11.9067 15.7766 12.08C15.9899 12.24 16.2232 12.3733 16.4766 12.48C16.7299 12.5733 16.9966 12.6333 17.2766 12.66C17.5566 12.6867 17.8232 12.6667 18.0766 12.6C18.4366 12.5067 18.7299 12.3867 18.9566 12.24C19.1832 12.08 19.3632 11.8933 19.4966 11.68C19.6299 11.4667 19.7166 11.2333 19.7566 10.98C19.8099 10.7267 19.8366 10.46 19.8366 10.18V10.16C19.6632 10.16 19.5099 10.16 19.3766 10.16C19.2432 10.1467 19.1432 10.14 19.0766 10.14C18.7832 10.14 18.4966 10.0867 18.2166 9.98C17.9766 9.9 17.7966 9.77333 17.6766 9.6C17.5432 9.45333 17.4766 9.27333 17.4766 9.06C17.4766 8.98 17.4766 8.90667 17.4766 8.84C17.4899 8.76 17.5032 8.68 17.5166 8.6C17.5566 8.49333 17.6432 8.36 17.7766 8.2C17.8566 8.13333 17.9832 8.08 18.1566 8.04C18.2366 8.01333 18.3166 7.99333 18.3966 7.98C18.4766 7.95333 18.5699 7.93333 18.6766 7.92C18.7566 7.90667 18.8432 7.9 18.9366 7.9C19.0299 7.9 19.1232 7.9 19.2166 7.9H21.0366C21.1832 7.88667 21.3499 7.90667 21.5366 7.96C21.7366 8 21.8899 8.06667 21.9966 8.16C22.0366 8.21333 22.0766 8.26667 22.1166 8.32C22.1566 8.37333 22.1899 8.43333 22.2166 8.5C22.2699 8.64667 22.3032 8.79333 22.3166 8.94C22.3299 9.02 22.3366 9.10667 22.3366 9.2C22.3499 9.28 22.3566 9.35333 22.3566 9.42V10.24Z" fill="black"/>
</svg>
